<svg width="512" height="512" viewBox="0 0 512 512" style="color:#000000" xmlns="http://www.w3.org/2000/svg" class="h-full w-full"><rect width="512" height="512" x="0" y="0" rx="30" fill="#ffffff" stroke="transparent" stroke-width="0" stroke-opacity="100%" paint-order="stroke"></rect><svg width="256px" height="256px" viewBox="0 0 2048 2048" fill="#000000" x="128" y="128" role="img" style="display:inline-block;vertical-align:middle" xmlns="http://www.w3.org/2000/svg"><g fill="black"><path fill="currentColor" d="M1024 1000v959l-64 32l-832-415V536l832-416l832 416v744h-128V680l-640 320zm-64-736L719 384l621 314l245-122l-625-312zm-64 1552v-816L256 680v816l640 320zM335 576l625 312l238-118l-622-314l-241 120zm1073 1216v-128h640v128h-640zm0-384h640v128h-640v-128zm-256 640v-128h128v128h-128zm0-512v-128h128v128h-128zm0 256v-128h128v128h-128zm-128 24h1h-1zm384 232v-128h640v128h-640z"/></g></svg></svg>